<?xml version="1.0" encoding="iso-8859-1"?>
<!-- Generator: Adobe Illustrator 19.0.0, SVG Export Plug-In . SVG Version: 6.00 Build 0)  -->
<svg version="1.1" id="Layer_1" xmlns="http://www.w3.org/2000/svg" x="0px" y="0px"
     viewBox="0 0 512 512" style="enable-background:new 0 0 512 512;" xml:space="preserve">
<g>
	<g>
		<g>
			<path fill="#000000" d="M486.4,110.933H25.6c-14.134,0-25.6,11.466-25.6,25.6v238.933c0,14.134,11.466,25.6,25.6,25.6h460.8
				c14.134,0,25.6-11.466,25.6-25.6V136.533C512,122.4,500.534,110.933,486.4,110.933z M494.933,375.467
				c0,4.708-3.825,8.533-8.533,8.533H25.6c-4.708,0-8.533-3.825-8.533-8.533V136.533c0-4.708,3.825-8.533,8.533-8.533h460.8
				c4.708,0,8.533,3.825,8.533,8.533V375.467z"/>
            <path fill="#000000" d="M452.17,237.716c-0.022-0.15-0.039-0.301-0.069-0.45c-0.028-0.143-0.067-0.281-0.103-0.421
				c-0.033-0.13-0.061-0.261-0.1-0.389c-0.041-0.137-0.093-0.268-0.141-0.402c-0.046-0.129-0.089-0.259-0.141-0.386
				c-0.052-0.126-0.113-0.246-0.171-0.369c-0.061-0.13-0.119-0.26-0.187-0.388c-0.063-0.118-0.135-0.23-0.204-0.345
				c-0.074-0.124-0.145-0.25-0.226-0.372c-0.084-0.125-0.177-0.244-0.268-0.364c-0.077-0.102-0.148-0.207-0.229-0.307
				c-0.178-0.217-0.366-0.426-0.565-0.625l-51.2-51.2c-1.6-1.6-3.771-2.499-6.034-2.499H119.467c-2.263,0-4.434,0.899-6.034,2.499
				l-51.2,51.2c-1.6,1.6-2.499,3.771-2.499,6.034v51.2c0,4.713,3.82,8.533,8.533,8.533h17.067v25.602
				c0,4.713,3.821,8.533,8.533,8.533H128c4.713,0,8.533-3.82,8.533-8.533v-25.602h238.933v25.602c0,4.713,3.82,8.533,8.533,8.533
				h34.133c4.713,0,8.533-3.82,8.533-8.533v-25.602h17.067c4.713,0,8.533-3.82,8.533-8.533v-51.2c0-0.281-0.015-0.562-0.043-0.842
				C452.212,237.965,452.188,237.841,452.17,237.716z M162.133,256h-17.067v-17.065h17.067V256z M136.533,273.068h34.133
				c4.713,0,8.533-3.82,8.533-8.533v-0.002h17.067v0.002c0,4.713,3.82,8.533,8.533,8.533h34.133c4.713,0,8.533-3.82,8.533-8.533
				v-0.002h17.067v0.002c0,4.713,3.821,8.533,8.533,8.533H307.2c4.713,0,8.533-3.82,8.533-8.533v-0.002H332.8v0.002
				c0,4.713,3.821,8.533,8.533,8.533h34.133c4.713,0,8.533-3.82,8.533-8.533v-0.002h8.533V281.6H119.467v-17.067H128v0.002
				C128,269.248,131.82,273.068,136.533,273.068z M230.4,256h-17.067v-17.065H230.4V256z M298.667,256H281.6v-17.065h17.067V256z
				 M366.933,256h-17.067v-17.065h17.067V256z M119.467,315.735H102.4v-17.067h17.067V315.735z M409.6,315.735h-17.067v-17.067
				H409.6V315.735z M435.2,281.6h-25.6V256c0-4.713-3.82-8.533-8.533-8.533H384v-17.065c0-4.713-3.82-8.533-8.533-8.533h-34.133
				c-4.713,0-8.533,3.82-8.533,8.533v17.065h-17.067v-17.065c0-4.713-3.82-8.533-8.533-8.533h-34.133
				c-4.713,0-8.533,3.82-8.533,8.533v17.065h-17.067v-17.065c0-4.713-3.82-8.533-8.533-8.533H204.8c-4.713,0-8.533,3.82-8.533,8.533
				v17.065H179.2v-17.065c0-4.713-3.82-8.533-8.533-8.533h-34.133c-4.713,0-8.533,3.82-8.533,8.533v17.065h-17.067
				c-4.713,0-8.533,3.82-8.533,8.533v25.6H76.8v-39.132l46.201-46.201h265.997l46.201,46.201V281.6z"/>
		</g>
	</g>
</g>
    <g>
</g>
    <g>
</g>
    <g>
</g>
    <g>
</g>
    <g>
</g>
    <g>
</g>
    <g>
</g>
    <g>
</g>
    <g>
</g>
    <g>
</g>
    <g>
</g>
    <g>
</g>
    <g>
</g>
    <g>
</g>
    <g>
</g>
</svg>
