<?xml version="1.0" encoding="iso-8859-1"?>
<!-- Generator: Adobe Illustrator 19.0.0, SVG Export Plug-In . SVG Version: 6.00 Build 0)  -->
<svg version="1.1" id="Layer_1" xmlns="http://www.w3.org/2000/svg" x="0px" y="0px"
     viewBox="0 0 512 512" style="enable-background:new 0 0 512 512;" xml:space="preserve">
<g>
	<g>
		<g>
			<path fill="#000000" d="M385.644,0H126.355c-9.425,0-17.067,7.641-17.067,17.067c0,9.77,0,469.268,0,477.867c0,9.425,7.641,17.067,17.067,17.067
				h259.289c9.425,0,17.067-7.641,17.067-17.067c0-8.71,0-468.095,0-477.867C402.71,7.641,395.069,0,385.644,0z M368.578,477.867
				h-0.001H143.422V352.711h225.156V477.867z M368.578,318.578H143.422V193.422h225.156V318.578z M368.578,159.289H143.422V34.133
				h225.156V159.289z"/>
            <path fill="#000000" d="M230.829,113.778h50.34c9.425,0,17.067-7.641,17.067-17.067s-7.641-17.067-17.067-17.067h-50.34
				c-9.425,0-17.067,7.641-17.067,17.067S221.404,113.778,230.829,113.778z"/>
            <path fill="#000000" d="M230.829,273.067h50.34c9.425,0,17.067-7.641,17.067-17.067s-7.641-17.067-17.067-17.067h-50.34
				c-9.425,0-17.067,7.641-17.067,17.067S221.404,273.067,230.829,273.067z"/>
            <path fill="#000000" d="M230.829,432.356h50.34c9.425,0,17.067-7.641,17.067-17.067s-7.641-17.067-17.067-17.067h-50.34
				c-9.425,0-17.067,7.641-17.067,17.067S221.404,432.356,230.829,432.356z"/>
		</g>
	</g>
</g>
    <g>
</g>
    <g>
</g>
    <g>
</g>
    <g>
</g>
    <g>
</g>
    <g>
</g>
    <g>
</g>
    <g>
</g>
    <g>
</g>
    <g>
</g>
    <g>
</g>
    <g>
</g>
    <g>
</g>
    <g>
</g>
    <g>
</g>
</svg>
