<?xml version="1.0" encoding="iso-8859-1"?>
<!-- Generator: Adobe Illustrator 19.0.0, SVG Export Plug-In . SVG Version: 6.00 Build 0)  -->
<svg version="1.1" id="Layer_1" xmlns="http://www.w3.org/2000/svg" x="0px" y="0px"
     viewBox="0 0 512 512" style="enable-background:new 0 0 512 512;" xml:space="preserve">
<g>
	<g>
		<g>
			<path fill="#000000" d="M256,0C114.609,0,0,114.609,0,256s114.609,256,256,256s256-114.609,256-256S397.391,0,256,0z M256,494.933
				C124.034,494.933,17.067,387.966,17.067,256S124.034,17.067,256,17.067S494.933,124.034,494.933,256S387.966,494.933,256,494.933
				z"/>
            <path fill="#000000" d="M298.667,264.535V145.068c0-4.713-3.82-8.533-8.533-8.533h-68.267c-4.713,0-8.533,3.821-8.533,8.533v119.467
				c0,4.713,3.82,8.533,8.533,8.533h68.267C294.846,273.068,298.667,269.248,298.667,264.535z M281.6,256.002h-51.2v-102.4h51.2
				V256.002z"/>
            <path fill="#000000" d="M162.133,204.8c18.853,0,34.133-15.281,34.133-34.133c0-18.853-15.281-34.133-34.133-34.133
				c-18.853,0-34.133,15.281-34.133,34.133C128,189.519,143.281,204.8,162.133,204.8z M162.133,153.6
				c9.427,0,17.067,7.64,17.067,17.067s-7.64,17.067-17.067,17.067c-9.427,0-17.067-7.64-17.067-17.067S152.706,153.6,162.133,153.6
				z"/>
            <path fill="#000000" d="M349.867,204.8c18.853,0,34.133-15.281,34.133-34.133c0-18.853-15.281-34.133-34.133-34.133
				c-18.853,0-34.133,15.281-34.133,34.133C315.733,189.519,331.014,204.8,349.867,204.8z M349.867,153.6
				c9.427,0,17.067,7.64,17.067,17.067s-7.64,17.067-17.067,17.067s-17.067-7.64-17.067-17.067S340.44,153.6,349.867,153.6z"/>
            <path fill="#000000" d="M375.467,230.4c-18.853,0-34.133,15.281-34.133,34.133c0,18.853,15.281,34.133,34.133,34.133
				c18.853,0,34.133-15.281,34.133-34.133C409.6,245.681,394.319,230.4,375.467,230.4z M375.467,281.6
				c-9.427,0-17.067-7.64-17.067-17.067c0-9.427,7.64-17.067,17.067-17.067s17.067,7.64,17.067,17.067
				C392.533,273.96,384.894,281.6,375.467,281.6z"/>
            <path fill="#000000" d="M136.533,230.4c-18.853,0-34.133,15.281-34.133,34.133c0,18.853,15.281,34.133,34.133,34.133
				c18.853,0,34.133-15.281,34.133-34.133C170.667,245.681,155.386,230.4,136.533,230.4z M136.533,281.6
				c-9.427,0-17.067-7.64-17.067-17.067c0-9.427,7.64-17.067,17.067-17.067c9.427,0,17.067,7.64,17.067,17.067
				C153.6,273.96,145.96,281.6,136.533,281.6z"/>
            <path fill="#000000" d="M204.8,324.267c-18.853,0-34.133,15.281-34.133,34.133c0,18.853,15.281,34.133,34.133,34.133
				c18.853,0,34.133-15.281,34.133-34.133C238.933,339.547,223.653,324.267,204.8,324.267z M204.8,375.467
				c-9.427,0-17.067-7.64-17.067-17.067c0-9.427,7.64-17.067,17.067-17.067c9.427,0,17.067,7.64,17.067,17.067
				C221.867,367.827,214.227,375.467,204.8,375.467z"/>
            <path fill="#000000" d="M307.2,324.267c-18.853,0-34.133,15.281-34.133,34.133c0,18.853,15.281,34.133,34.133,34.133
				c18.853,0,34.133-15.281,34.133-34.133C341.333,339.547,326.053,324.267,307.2,324.267z M307.2,375.467
				c-9.427,0-17.067-7.64-17.067-17.067c0-9.427,7.64-17.067,17.067-17.067s17.067,7.64,17.067,17.067
				C324.267,367.827,316.627,375.467,307.2,375.467z"/>
            <path fill="#000000" d="M300.599,64.888c-5.351-1.244-10.466,2.818-10.466,8.312v29.201h-68.267V73.2c0-5.494-5.115-9.556-10.466-8.312
				C123.195,85.4,59.733,164.267,59.733,256.001c0,31.4,7.43,61.776,21.467,89.219c1.459,2.853,4.393,4.647,7.597,4.647H128v50.953
				c0,2.546,1.137,4.959,3.1,6.58c34.911,28.826,78.69,44.867,124.9,44.867c46.21,0,89.989-16.041,124.9-44.867
				c1.963-1.621,3.1-4.034,3.1-6.58v-50.953h39.202c3.204,0,6.138-1.795,7.597-4.647c14.037-27.443,21.467-57.82,21.467-89.219
				C452.267,164.267,388.805,85.4,300.599,64.888z M417.898,332.801h-42.432c-4.713,0-8.533,3.82-8.533,8.533v55.409
				C335.581,421.49,296.849,435.201,256,435.201s-79.581-13.71-110.933-38.458v-55.409c0-4.713-3.82-8.533-8.533-8.533H94.102
				c-11.33-23.817-17.302-49.885-17.302-76.8c0-80.076,52.973-149.423,128-171.72v26.654c0,4.713,3.821,8.533,8.533,8.533h85.333
				c4.713,0,8.533-3.82,8.533-8.533V84.281c75.027,22.298,128,91.644,128,171.72C435.2,282.916,429.228,308.984,417.898,332.801z"/>
		</g>
	</g>
</g>
    <g>
</g>
    <g>
</g>
    <g>
</g>
    <g>
</g>
    <g>
</g>
    <g>
</g>
    <g>
</g>
    <g>
</g>
    <g>
</g>
    <g>
</g>
    <g>
</g>
    <g>
</g>
    <g>
</g>
    <g>
</g>
    <g>
</g>
</svg>
